<svg width="54" height="54" viewBox="0 0 54 54" fill="none" xmlns="http://www.w3.org/2000/svg">
<circle cx="27" cy="27" r="27" fill="#A68558"/>
<mask id="mask0_18_272" style="mask-type:luminance" maskUnits="userSpaceOnUse" x="16" y="17" width="22" height="20">
<path fill-rule="evenodd" clip-rule="evenodd" d="M16.1053 17.0527H37.8947V36.9475H16.1053V17.0527Z" fill="white"/>
</mask>
<g mask="url(#mask0_18_272)">
</g>
<g clip-path="url(#clip0_18_272)">
<path d="M22.3132 40.0001C18.5745 39.9833 15.4479 37.1969 15.0486 33.4716C14.8071 31.215 15.4527 29.2213 17.0283 27.5712C17.9026 26.6555 18.8072 25.7693 19.7046 24.8767C20.2474 24.3374 21.0388 24.3334 21.5449 24.852C22.039 25.3578 22.0287 26.1441 21.5026 26.6795C20.665 27.5329 19.8098 28.3703 18.9746 29.2253C17.6293 30.6021 17.2077 32.2434 17.7743 34.0741C18.3346 35.8833 19.6042 36.9988 21.458 37.3528C23.0544 37.658 24.4754 37.2217 25.6494 36.0758C26.5269 35.22 27.3836 34.3426 28.246 33.4716C28.607 33.1065 29.0374 32.9746 29.5275 33.108C30.4074 33.3478 30.7979 34.4561 30.1707 35.1177C29.0613 36.2884 27.9312 37.4494 26.7142 38.5034C25.5099 39.5462 23.9048 40.0065 22.3124 39.9993L22.3132 40.0001Z" fill="white"/>
<path d="M32.8 15.0001C36.8862 14.9841 40.2391 18.5512 39.9872 22.7895C39.8789 24.6066 39.2014 26.1768 37.9326 27.4785C37.0703 28.3639 36.1936 29.2357 35.3177 30.1074C34.759 30.6636 33.9684 30.674 33.4551 30.145C32.9546 29.6288 32.9817 28.8465 33.5252 28.2967C34.3597 27.4537 35.2045 26.6211 36.0326 25.7716C37.3675 24.4028 37.7923 22.7695 37.2368 20.9492C36.6805 19.1265 35.4085 17.999 33.5412 17.6458C31.9209 17.3398 30.4895 17.796 29.3076 18.9691C28.4588 19.8113 27.6164 20.6615 26.7763 21.5126C26.4169 21.8761 25.9921 22.0232 25.4996 21.9001C24.6061 21.6772 24.2021 20.5457 24.8349 19.8776C25.9236 18.7278 27.0306 17.5859 28.2221 16.5479C29.4733 15.4579 31.0131 15.0216 32.8 15.0001Z" fill="white"/>
<path d="M30.9119 22.7695C31.3989 22.8031 31.799 23.0316 32.0213 23.5079C32.2493 23.9961 32.1855 24.47 31.8364 24.8767C31.5511 25.2083 31.2323 25.5112 30.9255 25.8244C28.9967 27.7973 27.0664 29.7679 25.1401 31.7424C24.791 32.0996 24.3941 32.3041 23.8856 32.1971C22.9053 31.9901 22.5212 30.8514 23.1851 30.0987C23.5007 29.7407 23.849 29.4107 24.1829 29.0687C26.0766 27.1317 27.9726 25.1971 29.8631 23.2562C30.1476 22.9645 30.4688 22.7775 30.9119 22.7695Z" fill="white"/>
</g>
<defs>
<clipPath id="clip0_18_272">
<rect width="25" height="25" fill="white" transform="translate(15 15)"/>
</clipPath>
</defs>
</svg>
