<svg width="47" height="53" viewBox="0 0 47 53" fill="none" xmlns="http://www.w3.org/2000/svg">
<rect width="47" height="52.875" fill="#A68558"/>
<path d="M13.178 13.981C13.178 14.785 13.094 15.559 12.926 16.303C12.758 17.047 12.506 17.713 12.17 18.301C11.834 18.889 11.42 19.363 10.928 19.723C10.448 20.095 9.896 20.305 9.272 20.353C8.624 20.401 8.054 20.263 7.562 19.939C7.082 19.615 6.68 19.177 6.356 18.625C6.032 18.061 5.792 17.425 5.636 16.717C5.48 15.997 5.402 15.265 5.402 14.521C5.402 13.765 5.486 13.015 5.654 12.271C5.822 11.527 6.068 10.855 6.392 10.255C6.728 9.65499 7.136 9.16299 7.616 8.77899C8.108 8.39499 8.666 8.17899 9.29 8.13099C9.962 8.08299 10.538 8.23299 11.018 8.58099C11.51 8.91699 11.912 9.36699 12.224 9.93099C12.548 10.495 12.788 11.137 12.944 11.857C13.1 12.565 13.178 13.273 13.178 13.981ZM12.062 14.053C12.062 13.537 12.02 12.967 11.936 12.343C11.852 11.719 11.702 11.143 11.486 10.615C11.27 10.087 10.982 9.65499 10.622 9.31899C10.262 8.97099 9.812 8.81499 9.272 8.85099C8.876 8.87499 8.528 8.99499 8.228 9.21099C7.94 9.41499 7.694 9.67899 7.49 10.003C7.286 10.327 7.118 10.687 6.986 11.083C6.866 11.479 6.77 11.881 6.698 12.289C6.626 12.697 6.578 13.093 6.554 13.477C6.53 13.849 6.518 14.173 6.518 14.449C6.518 14.893 6.548 15.421 6.608 16.033C6.68 16.633 6.812 17.209 7.004 17.761C7.208 18.313 7.49 18.775 7.85 19.147C8.21 19.507 8.69 19.669 9.29 19.633C9.842 19.597 10.298 19.387 10.658 19.003C11.018 18.619 11.3 18.157 11.504 17.617C11.708 17.065 11.846 16.471 11.918 15.835C12.002 15.199 12.05 14.605 12.062 14.053ZM22.2458 12.991C22.2458 13.951 22.0658 14.875 21.7058 15.763C21.3458 16.651 20.8598 17.473 20.2478 18.229C19.6358 18.985 18.9158 19.657 18.0878 20.245C17.2598 20.845 16.3778 21.331 15.4418 21.703C15.3338 21.739 15.2378 21.739 15.1538 21.703C15.0818 21.679 15.0338 21.631 15.0098 21.559C14.9858 21.499 14.9918 21.427 15.0278 21.343C15.0758 21.271 15.1598 21.205 15.2798 21.145C16.1918 20.713 17.0078 20.197 17.7278 19.597C18.4598 19.009 19.0778 18.367 19.5818 17.671C20.0858 16.975 20.4698 16.237 20.7338 15.457C20.9978 14.677 21.1298 13.885 21.1298 13.081C21.1298 12.565 21.0818 12.049 20.9858 11.533C20.9018 11.017 20.7518 10.561 20.5358 10.165C20.3198 9.76899 20.0198 9.45699 19.6358 9.22899C19.2638 8.98899 18.7898 8.88699 18.2138 8.92299C17.4578 8.98299 16.8518 9.29499 16.3958 9.85899C15.9518 10.423 15.7298 11.143 15.7298 12.019C15.7298 12.415 15.7718 12.781 15.8558 13.117C15.9518 13.453 16.0838 13.741 16.2518 13.981C16.4198 14.209 16.6238 14.389 16.8638 14.521C17.1158 14.641 17.3978 14.689 17.7098 14.665C18.1298 14.641 18.4778 14.569 18.7538 14.449C19.0298 14.329 19.2338 14.215 19.3658 14.107C19.4378 14.047 19.5038 14.023 19.5638 14.035C19.6358 14.035 19.6898 14.059 19.7258 14.107C19.7618 14.155 19.7798 14.215 19.7798 14.287C19.7798 14.347 19.7438 14.413 19.6718 14.485C19.5638 14.593 19.4258 14.701 19.2578 14.809C19.1018 14.917 18.9278 15.019 18.7358 15.115C18.5438 15.199 18.3398 15.277 18.1238 15.349C17.9198 15.409 17.7218 15.445 17.5298 15.457C17.0498 15.493 16.6298 15.439 16.2698 15.295C15.9218 15.151 15.6278 14.947 15.3878 14.683C15.1598 14.407 14.9858 14.077 14.8658 13.693C14.7458 13.297 14.6858 12.871 14.6858 12.415C14.6858 11.875 14.7698 11.359 14.9378 10.867C15.1058 10.363 15.3458 9.92499 15.6578 9.55299C15.9698 9.16899 16.3478 8.85699 16.7918 8.61699C17.2478 8.37699 17.7578 8.23899 18.3218 8.20299C19.0178 8.15499 19.6118 8.25699 20.1038 8.50899C20.6078 8.76099 21.0158 9.11499 21.3278 9.57099C21.6518 10.027 21.8858 10.555 22.0298 11.155C22.1738 11.743 22.2458 12.355 22.2458 12.991Z" fill="white"/>
<path d="M28.756 40.122C28.756 40.458 28.774 40.728 28.81 40.932C28.846 41.124 28.912 41.274 29.008 41.382C29.116 41.478 29.266 41.544 29.458 41.58C29.662 41.616 29.926 41.64 30.25 41.652C30.346 41.652 30.418 41.682 30.466 41.742C30.514 41.802 30.538 41.868 30.538 41.94C30.538 42.012 30.514 42.078 30.466 42.138C30.418 42.198 30.346 42.234 30.25 42.246L26.29 42.516C26.194 42.528 26.116 42.504 26.056 42.444C26.008 42.396 25.984 42.336 25.984 42.264C25.984 42.192 26.008 42.12 26.056 42.048C26.116 41.988 26.194 41.946 26.29 41.922C26.626 41.862 26.89 41.802 27.082 41.742C27.286 41.682 27.436 41.598 27.532 41.49C27.64 41.37 27.706 41.208 27.73 41.004C27.766 40.8 27.784 40.53 27.784 40.194V33.264C27.784 33.036 27.772 32.856 27.748 32.724C27.724 32.592 27.676 32.496 27.604 32.436C27.532 32.376 27.436 32.34 27.316 32.328C27.196 32.316 27.046 32.316 26.866 32.328L25.984 32.382C25.864 32.394 25.774 32.376 25.714 32.328C25.666 32.268 25.636 32.208 25.624 32.148C25.624 32.076 25.648 32.01 25.696 31.95C25.744 31.878 25.804 31.836 25.876 31.824C26.26 31.752 26.668 31.608 27.1 31.392C27.532 31.164 27.952 30.882 28.36 30.546C28.468 30.45 28.558 30.426 28.63 30.474C28.714 30.522 28.756 30.6 28.756 30.708V40.122ZM41.0458 38.376C41.0458 38.916 40.9618 39.438 40.7938 39.942C40.6258 40.434 40.3858 40.872 40.0738 41.256C39.7618 41.628 39.3778 41.934 38.9218 42.174C38.4778 42.414 37.9738 42.552 37.4098 42.588C36.7018 42.636 36.1018 42.534 35.6098 42.282C35.1178 42.03 34.7098 41.676 34.3858 41.22C34.0738 40.764 33.8458 40.242 33.7018 39.654C33.5578 39.054 33.4858 38.436 33.4858 37.8C33.4858 36.852 33.6658 35.934 34.0258 35.046C34.3858 34.146 34.8718 33.318 35.4838 32.562C36.0958 31.806 36.8158 31.134 37.6438 30.546C38.4718 29.946 39.3538 29.46 40.2898 29.088C40.3978 29.052 40.4878 29.052 40.5598 29.088C40.6438 29.112 40.6978 29.16 40.7218 29.232C40.7458 29.292 40.7338 29.364 40.6858 29.448C40.6498 29.52 40.5718 29.586 40.4518 29.646C39.5278 30.078 38.7058 30.594 37.9858 31.194C37.2658 31.782 36.6538 32.424 36.1498 33.12C35.6458 33.816 35.2618 34.554 34.9978 35.334C34.7338 36.114 34.6018 36.906 34.6018 37.71C34.6018 38.226 34.6438 38.742 34.7278 39.258C34.8238 39.774 34.9798 40.23 35.1958 40.626C35.4118 41.022 35.7058 41.34 36.0778 41.58C36.4618 41.808 36.9418 41.904 37.5178 41.868C38.2738 41.808 38.8738 41.496 39.3178 40.932C39.7738 40.368 40.0018 39.648 40.0018 38.772C40.0018 38.376 39.9538 38.01 39.8578 37.674C39.7738 37.338 39.6478 37.056 39.4798 36.828C39.3118 36.588 39.1018 36.408 38.8498 36.288C38.6098 36.156 38.3338 36.102 38.0218 36.126C37.6018 36.15 37.2538 36.222 36.9778 36.342C36.7018 36.462 36.4978 36.576 36.3658 36.684C36.2938 36.744 36.2218 36.774 36.1498 36.774C36.0898 36.762 36.0418 36.732 36.0058 36.684C35.9698 36.636 35.9518 36.582 35.9518 36.522C35.9518 36.45 35.9878 36.378 36.0598 36.306C36.1678 36.198 36.2998 36.09 36.4558 35.982C36.6238 35.874 36.8038 35.778 36.9958 35.694C37.1878 35.598 37.3858 35.52 37.5898 35.46C37.7938 35.388 37.9978 35.346 38.2018 35.334C38.6818 35.298 39.0958 35.352 39.4438 35.496C39.8038 35.64 40.0978 35.85 40.3258 36.126C40.5658 36.39 40.7458 36.72 40.8658 37.116C40.9858 37.5 41.0458 37.92 41.0458 38.376Z" fill="white"/>
<line x1="10.3824" y1="42.1406" x2="36.8727" y2="10.1398" stroke="white" stroke-width="0.5"/>
</svg>