<svg width="10" height="9" viewBox="0 0 10 9" fill="none" xmlns="http://www.w3.org/2000/svg">
<path id="Vector" d="M5 9L0.805368 4.875C0.290827 4.32955 0 3.61364 0 2.85227C0 2.09091 0.279641 1.375 0.805368 0.829545C1.30872 0.306818 2.00224 0 2.72931 0C2.72931 0 2.72931 0 2.74049 0C3.26622 0 3.94855 0.386364 4.65324 1.07955C4.85459 1.28409 5.17897 1.28409 5.38031 1.07955C5.96197 0.477273 6.74497 0.147727 7.57271 0.125H7.58389C8.18792 0.125 8.78076 0.375 9.20582 0.818182C9.72036 1.36364 10 2.07955 10 2.84091C10 3.60227 9.70917 4.32955 9.20582 4.86364L5 9Z" fill="#E4261A"/>
</svg>
